HIERARCHY
ROOT root
{
	OFFSET 0.000000 0.000000 0.000000
	CHANNELS 6 Xposition Yposition Zposition Zrotation Yrotation Xrotation
	JOINT lhip
	{
		OFFSET 0.058581 -0.082280 -0.017664
		CHANNELS 3 Zrotation Yrotation Xrotation
		JOINT lknee
		{
			OFFSET 0.043451 -0.386469 0.008037
			CHANNELS 3 Zrotation Yrotation Xrotation
			JOINT lankle
			{
				OFFSET -0.014790 -0.426874 -0.037428
				CHANNELS 3 Zrotation Yrotation Xrotation
				JOINT ltoe
				{
					OFFSET 0.041054 -0.060286 0.122042
					CHANNELS 3 Zrotation Yrotation Xrotation
					End Site
					{
						OFFSET 0.000000 0.000000 0.000000
					}
				}
			}
		}
	}
	JOINT rhip
	{
		OFFSET -0.060310 -0.090513 -0.013543
		CHANNELS 3 Zrotation Yrotation Xrotation
		JOINT rknee
		{
			OFFSET -0.043257 -0.383688 -0.004843
			CHANNELS 3 Zrotation Yrotation Xrotation
			JOINT rankle
			{
				OFFSET 0.019056 -0.420046 -0.034562
				CHANNELS 3 Zrotation Yrotation Xrotation
				JOINT rtoe
				{
					OFFSET -0.034840 -0.062106 0.130323
					CHANNELS 3 Zrotation Yrotation Xrotation
					End Site
					{
						OFFSET 0.000000 0.000000 0.000000
					}
				}
			}
		}
	}
	JOINT lowerback
	{
		OFFSET 0.004439 0.124404 -0.038385
		CHANNELS 3 Zrotation Yrotation Xrotation
		JOINT upperback
		{
			OFFSET 0.004488 0.137956 0.026820
			CHANNELS 3 Zrotation Yrotation Xrotation
			JOINT chest
			{
				OFFSET -0.002265 0.056032 0.002855
				CHANNELS 3 Zrotation Yrotation Xrotation
				JOINT lowerneck
				{
					OFFSET -0.013390 0.211636 -0.033468
					CHANNELS 3 Zrotation Yrotation Xrotation
					JOINT upperneck
					{
						OFFSET 0.010113 0.088937 0.050410
						CHANNELS 3 Zrotation Yrotation Xrotation
						End Site
						{
							OFFSET 0.000000 0.000000 0.000000
						}
					}
				}
				JOINT lclavicle
				{
					OFFSET 0.071702 0.114000 -0.018898
					CHANNELS 3 Zrotation Yrotation Xrotation
					JOINT lshoulder
					{
						OFFSET 0.122921 0.045205 -0.019046
						CHANNELS 3 Zrotation Yrotation Xrotation
						JOINT lelbow
						{
							OFFSET 0.255332 -0.015649 -0.022946
							CHANNELS 3 Zrotation Yrotation Xrotation
							JOINT lwrist
							{
								OFFSET 0.265709 0.012698 -0.007375
								CHANNELS 3 Zrotation Yrotation Xrotation
								End Site
								{
									OFFSET 0.000000 0.000000 0.000000
								}
							}
						}
					}
				}
				JOINT rclavicle
				{
					OFFSET -0.082954 0.112472 -0.023707
					CHANNELS 3 Zrotation Yrotation Xrotation
					JOINT rshoulder
					{
						OFFSET -0.113228 0.046853 -0.008472
						CHANNELS 3 Zrotation Yrotation Xrotation
						JOINT relbow
						{
							OFFSET -0.260127 -0.014369 -0.031269
							CHANNELS 3 Zrotation Yrotation Xrotation
							JOINT rwrist
							{
								OFFSET -0.269108 0.006794 -0.006027
								CHANNELS 3 Zrotation Yrotation Xrotation
								End Site
								{
									OFFSET 0.000000 0.000000 0.000000
								}
							}
						}
					}
				}
			}
		}
	}
}
MOTION
Frames: 7
Frame Time: 0.033333
1.015365 0.773153 0.978255 -85.598007 3.123474 93.053500 1.641505 -4.118011 -9.151516 -2.881167 -12.188974 16.701521 4.979971 12.093467 -23.801826 0.000000 -0.000000 0.000000 4.406686 2.694122 -13.320975 1.292033 2.749543 21.218566 2.689810 -7.980201 -18.327955 0.000000 -0.000000 0.000000 -3.422019 1.900255 8.266527 3.329357 -2.594127 1.891734 1.448589 -1.178293 4.057765 3.052253 -3.987710 -5.335388 3.913346 -11.198963 -10.320449 -18.800246 3.710232 3.305758 -52.707149 -2.201863 14.417580 -6.526811 -37.355058 25.008081 1.124804 -5.531847 -8.229102 21.187782 -2.704825 0.515996 59.310053 -3.998167 12.454889 -11.668703 31.795171 1.868195 2.546311 2.668284 -8.583776 
1.022723 0.776158 0.971524 -84.838659 3.022268 93.902852 1.698067 -6.391558 -14.404072 -3.849645 -11.147075 24.305983 4.859348 13.179914 -25.514219 0.000000 -0.000000 0.000000 4.339787 3.661490 -17.592467 1.393763 1.834772 26.878615 2.589220 -9.247864 -20.402395 0.000000 -0.000000 0.000000 -3.138262 1.918225 10.759772 3.385440 -2.564075 0.735284 1.174746 -1.322877 4.548329 2.643159 -3.552102 -5.921707 4.167401 -11.649314 -10.610211 -17.855717 3.934892 3.416024 -51.570795 -1.776432 14.422913 -7.882797 -39.500161 25.896055 0.966731 -5.868574 -9.145542 20.937805 -3.312160 0.341776 58.744114 -5.130930 12.443868 -12.308771 34.599616 1.821670 2.967610 2.894865 -8.642967 
1.029739 0.779089 0.957489 -83.601360 3.066755 94.454317 2.547665 -7.592528 -20.131401 -5.817511 -9.629886 32.795686 4.847584 13.269380 -27.458189 0.000000 -0.000000 0.000000 3.988157 4.089821 -22.188828 1.772647 0.099593 33.891158 2.081212 -9.861209 -23.481367 0.000000 -0.000000 0.000000 -2.540770 1.628562 13.892264 3.496332 -2.599950 -0.350317 0.930699 -1.261929 4.631276 1.777838 -3.563301 -4.214872 6.017312 -11.690448 -12.484766 -16.732668 3.647875 3.997689 -51.016058 -1.134212 14.073715 -9.056250 -42.204510 26.924718 1.494987 -5.487586 -10.594341 19.796287 -3.728967 0.897090 58.881227 -6.461574 11.555932 -12.806548 38.627616 2.502166 2.831339 3.043436 -9.465190 
1.038507 0.783095 0.935546 -83.017330 2.995066 95.101274 3.667965 -7.640499 -26.559673 -7.835628 -7.084120 41.828052 5.107427 12.768149 -29.501222 0.000000 -0.000000 0.000000 3.070584 4.256828 -27.791730 1.944356 -2.225720 42.149951 1.886959 -9.577006 -26.750309 0.000000 -0.000000 0.000000 -2.295539 1.724380 16.984827 3.598576 -2.308598 -1.224409 0.676952 -1.060284 4.684378 0.804784 -3.296647 -2.160522 8.104668 -11.770336 -14.568144 -15.721852 3.150214 4.437975 -50.684470 -0.791762 13.631271 -9.815791 -44.764605 27.468716 2.402475 -5.123018 -12.056013 18.817945 -4.136268 1.466074 58.903882 -7.511572 10.666546 -13.375208 43.258372 3.391233 2.808607 3.239723 -10.456823 
1.046435 0.787676 0.907211 -82.072522 2.801905 95.444543 4.820195 -7.079075 -33.020163 -9.437433 -3.936567 50.790196 5.806943 11.992998 -31.450292 0.000000 -0.000000 0.000000 2.027164 4.130162 -33.268592 1.983334 -4.313292 50.785796 1.497392 -9.572114 -30.313633 0.000000 -0.000000 0.000000 -2.364113 1.885804 19.930746 3.816356 -2.272912 -1.321858 0.530677 -0.590066 4.371092 -0.350471 -2.988194 0.762450 10.677693 -11.592144 -17.131674 -15.354999 2.119113 4.694455 -50.307149 -0.612936 13.091781 -9.906099 -46.913717 27.347189 3.617343 -4.219234 -12.969061 18.231689 -4.074228 2.394352 58.711800 -8.467276 9.613586 -14.334113 48.452634 4.103818 2.425125 3.365181 -10.962667 
1.053329 0.791997 0.875752 -81.142888 2.380539 95.977361 5.746465 -6.757929 -39.999003 -10.610947 -0.845123 60.092138 6.121338 11.298030 -33.059501 0.000000 -0.000000 0.000000 0.923684 3.591118 -38.863050 1.445408 -6.116238 59.332760 1.110629 -9.623979 -33.826235 0.000000 -0.000000 0.000000 -2.527110 2.073042 22.731348 3.758457 -2.127423 -2.533211 0.264052 -0.282435 4.212538 -1.084195 -2.962801 1.739570 12.051292 -11.984283 -17.990035 -15.882661 1.579270 4.822922 -49.625986 -0.827616 12.277744 -9.321940 -47.921508 26.684068 4.561583 -3.983116 -12.603357 18.508871 -3.923301 3.206534 58.100950 -9.172547 8.956906 -15.869375 52.875960 4.355981 1.913674 3.720324 -10.979061 
1.057291 0.796364 0.843189 -79.450046 2.059528 95.514435 6.910890 -7.313092 -45.281973 -11.165119 2.214510 68.235863 6.379955 10.818508 -35.169400 0.000000 -0.000000 0.000000 -0.204980 3.568883 -42.969507 0.452487 -8.141376 67.885232 1.088765 -10.409528 -37.454865 0.000000 -0.000000 0.000000 -2.711494 2.312716 25.860260 3.898004 -2.231637 -3.014804 0.352324 -0.091699 3.189217 -1.115920 -3.162273 4.897591 13.821608 -10.587151 -19.753228 -16.979203 0.238487 5.761228 -50.037963 -1.103174 10.867639 -5.847852 -48.411510 23.626060 5.924741 -3.562014 -11.825814 18.174351 -3.158087 4.434600 58.238088 -9.136678 7.948910 -17.643485 56.820211 4.950488 1.104478 3.800345 -10.936994 
